<svg viewBox="0 0 81 58.89" xmlns="http://www.w3.org/2000/svg"><g stroke="#3c3c3b" stroke-miterlimit="10"><g fill="#d3d1d4"><path d="m80.5 8.22v42.45c0 4.26-4.78 7.72-10.67 7.72h-58.66c-5.89 0-10.67-3.46-10.67-7.72v-42.45c0-4.26 4.78-7.72 10.67-7.72h58.66c5.89 0 10.67 3.46 10.67 7.72z"/><path d="m30.61 38.3v20.09h-20.24c-5.45 0-9.87-3.46-9.87-7.72v-14.17h28.31c.99 0 1.8.81 1.8 1.8z"/><path d="m50.28 20.59v-20.09h20.32c5.47 0 9.9 3.46 9.9 7.72v14.17h-28.42c-.99 0-1.8-.81-1.8-1.8z"/><path d="m50.28 38.3v20.09s20.32 0 20.32 0c5.47 0 9.9-3.46 9.9-7.72v-14.17s-28.42 0-28.42 0c-.99 0-1.8.81-1.8 1.8z"/><path d="m30.61 20.59v-20.09s-20.24 0-20.24 0c-5.45 0-9.87 3.46-9.87 7.72v14.17s28.31 0 28.31 0c.99 0 1.8-.81 1.8-1.8z"/></g><path d="m25.2 22.39v14.11" fill="none"/><path d="m56.02 22.39v14.11" fill="none"/><path d="m33.94 4.95h13.12" fill="none"/><path d="m33.94 52.65h13.12" fill="none"/></g></svg>