<?xml version="1.0" encoding="UTF-8"?><svg id="Capa_1" xmlns="http://www.w3.org/2000/svg" viewBox="0 0 81 58.89"><path d="m80.5,8.22v42.45c0,4.26-4.78,7.72-10.67,7.72H11.17c-5.89,0-10.67-3.46-10.67-7.72V8.22C.5,3.96,5.28.5,11.17.5h58.66c5.89,0,10.67,3.46,10.67,7.72Z" fill="#d3d1d4" stroke="#3c3c3b" stroke-miterlimit="10"/><path d="m30.61,38.3v20.09H10.37c-5.45,0-9.87-3.46-9.87-7.72v-14.17h28.31c.99,0,1.8.81,1.8,1.8Z" fill="#d3d1d4" stroke="#3c3c3b" stroke-miterlimit="10"/><path d="m50.28,20.59V.5h20.32c5.47,0,9.9,3.46,9.9,7.72v14.17h-28.42c-.99,0-1.8-.81-1.8-1.8Z" fill="#d3d1d4" stroke="#3c3c3b" stroke-miterlimit="10"/><path d="m50.28,38.3v20.09s20.32,0,20.32,0c5.47,0,9.9-3.46,9.9-7.72v-14.17s-28.42,0-28.42,0c-.99,0-1.8.81-1.8,1.8Z" fill="#d3d1d4" stroke="#3c3c3b" stroke-miterlimit="10"/><path d="m30.61,20.59V.5s-20.24,0-20.24,0c-5.45,0-9.87,3.46-9.87,7.72v14.17s28.31,0,28.31,0c.99,0,1.8-.81,1.8-1.8Z" fill="#d3d1d4" stroke="#3c3c3b" stroke-miterlimit="10"/><line x1="25.2" y1="22.39" x2="25.2" y2="36.5" fill="none" stroke="#3c3c3b" stroke-miterlimit="10"/><line x1="56.02" y1="22.39" x2="56.02" y2="36.5" fill="none" stroke="#3c3c3b" stroke-miterlimit="10"/><line x1="33.94" y1="4.95" x2="47.06" y2="4.95" fill="none" stroke="#3c3c3b" stroke-miterlimit="10"/><line x1="33.94" y1="52.65" x2="47.06" y2="52.65" fill="none" stroke="#3c3c3b" stroke-miterlimit="10"/></svg>