<?xml version="1.0" encoding="UTF-8"?><svg id="Capa_2" xmlns="http://www.w3.org/2000/svg" viewBox="0 0 1411.33 1417.32"><rect x="1150.75" y="501.97" width="35.64" height="352.38" fill="#222e35"/><path d="m1021.37,583.76v249.81c0,36.78-19.62,70.76-51.47,89.15l-216.34,124.91c-31.85,18.39-71.09,18.39-102.94,0l-216.34-124.91c-31.85-18.39-51.47-52.37-51.47-89.15v-249.81c0-36.78,19.62-70.76,51.47-89.15l216.34-124.91c31.85-18.39,71.09-18.39,102.94,0l216.34,124.91c31.85,18.39,51.47,52.37,51.47,89.15Z" fill="#00a884"/><path d="m788.37,761.21l406.24-197.31c47.65-23,47.65-60.51,0-83.85l-406.24-200.22c-47.65-23.63-124.9-24.19-172.55-1.19l-406.24,197.31c-47.65,23.29-47.65,61.37,0,85l406.24,200.22c47.65,23.34,124.9,23.33,172.55.04Z" fill="#222e35"/><path d="m1154.53,750.56l-68.69,118.97c-6.24,10.81,1.56,24.31,14.04,24.31h137.37c12.48,0,20.28-13.51,14.04-24.31l-68.69-118.97c-6.24-10.81-21.84-10.81-28.07,0Z" fill="#222e35"/></svg>