<?xml version="1.0" encoding="UTF-8"?><svg id="Capa_1" xmlns="http://www.w3.org/2000/svg" viewBox="0 0 1598.4 517.89"><path d="m1041.1,0c72.68,0,124.22,22.23,124.22,22.23l-22.92,105.93s-47.37-23.98-105.43-23.98c-51.45,0-76.26,22.63-76.26,43.28,0,58.12,180.63,66.47,180.63,198.18,0,110.54-97.64,172.25-221.72,172.25-83.72,0-146.78-27.85-146.78-27.85l23.42-109.68s54.74,32.98,127.98,32.98c51.6,0,81.82-23.6,81.82-49.97,0-62.61-179.88-71.22-179.88-195.86C826.18,58.83,927.6,0,1041.1,0h0ZM2.75,7.99h216.66c31.29,0,56.85,18.88,61.9,51.97l55.02,289.11L471.18,7.99h135.9l-209.85,501.66h-136.22L159.39,117.92c-9.32-36.14-13.27-47.78-68.64-67.77C47.75,32.72,0,23.98,0,23.98L2.75,7.99Zm658.98,0h129.23l-106.24,501.66h-129.6L661.73,7.99Zm722.82,0h109.23l104.62,501.66h-119.92l-15.99-75.95h-165.57l-26.29,75.95h-135.91l189.87-455.69c12.15-29.23,28.71-45.97,59.96-45.97h0Zm17.67,135.54l-67.64,188.24h107.93l-40.29-188.24Z" fill="#fff" fill-rule="evenodd"/></svg>