<?xml version="1.0" encoding="UTF-8"?><svg id="Capa_1" xmlns="http://www.w3.org/2000/svg" viewBox="0 0 300 120"><rect width="300" height="120" fill="#fff"/><path d="m241.74,120h-116.08c-6.66-17.62-15.75-34.21-27.01-49.31l-5.89-7.9c-1.38-2.4-1.36-5.6.06-7.97l6.04-7.58C110.22,33,119.26,17.05,125.66,0h0s116.08,0,116.08,0v120Z" fill="#87c69c"/><path d="m255.07,120h-116.08c-6.66-17.62-15.75-34.21-27.01-49.31l-5.89-7.9c-1.38-2.4-1.36-5.6.06-7.97l6.04-7.58C123.55,33,132.59,17.05,139,0h0s116.08,0,116.08,0v120Z" fill="#20ae83"/><path d="m270.67,120h-116.08c-6.66-17.62-15.75-34.21-27.01-49.31l-5.89-7.9c-1.38-2.4-1.36-5.6.06-7.97l6.04-7.58C139.14,33,148.19,17.05,154.59,0h0s116.08,0,116.08,0v120Z" fill="#fff"/><path d="m286.67,120h-116.08c-6.66-17.62-15.75-34.21-27.01-49.31l-5.89-7.9c-1.38-2.4-1.36-5.6.06-7.97l6.04-7.58C155.14,33,164.19,17.05,170.59,0h0s116.08,0,116.08,0v120Z" fill="#87c69c"/><path d="m300,120h-116.08c-6.66-17.62-15.75-34.21-27.01-49.31l-5.89-7.9c-1.38-2.4-1.36-5.6.06-7.97l6.04-7.58C168.48,33,177.52,17.05,183.92,0h0s116.08,0,116.08,0v120Z" fill="#20ae83"/><circle cx="175.78" cy="57.89" r="9.04" fill="#87c69c"/><circle cx="201.96" cy="57.89" r="5.76" fill="#87c69c"/><circle cx="89.44" cy="18.85" r="14" fill="#87c69c"/><circle cx="94.41" cy="101.74" r="9.04" fill="#87c69c"/><circle cx="41.67" cy="57.89" r="5.76" fill="#87c69c"/><circle cx="18.4" cy="57.89" r="4.13" fill="#87c69c"/><circle cx="66.41" cy="44.72" r="9.04" fill="#87c69c"/><circle cx="75.44" cy="74.48" r="5.76" fill="#87c69c"/></svg>