<?xml version="1.0" encoding="UTF-8"?><svg id="Capa_1" xmlns="http://www.w3.org/2000/svg" viewBox="0 0 79.27 79.27"><path d="m75.44,35.8c0,1.32-.06,2.56-.2,3.77-.66,6.34-2.97,12.29-6.67,17.34,2.78-5.28,4.27-11.21,4.27-17.28,0-8.89-3.19-17.47-8.97-24.17-6.17-7.19-14.76-11.68-24.17-12.67-1.25-.14-2.54-.2-3.9-.2-8.79,0-17.28,3.12-23.95,8.79C18.14,5.21,26.46,1.11,35.7.21c.48-.05.97-.1,1.45-.12.5-.04.98-.06,1.46-.07.35-.01.67-.01,1-.01h.05c.33,0,.66,0,.99.01.49.01.98.04,1.45.07.51.02.99.07,1.47.12,9.01.98,17.25,5.32,23.19,12.24,5.59,6.47,8.67,14.76,8.67,23.35Z" fill="#533b43"/><path d="m56.91,10.7c-5.28-2.78-11.21-4.27-17.28-4.27-8.89,0-17.46,3.19-24.17,8.97-7.19,6.17-11.68,14.76-12.67,24.17-.14,1.25-.2,2.54-.2,3.9,0,8.79,3.12,17.28,8.79,23.93C5.21,61.13,1.11,52.82.21,43.57c-.05-.48-.1-.97-.12-1.46-.04-.48-.06-.97-.07-1.45-.01-.35-.01-.69-.01-1.03s0-.68.01-1.01c.01-.5.04-.98.07-1.45.02-.51.07-.99.12-1.47.98-9.01,5.32-17.25,12.24-23.19,6.47-5.59,14.76-8.67,23.35-8.67,1.32,0,2.55.06,3.77.2,6.34.66,12.29,2.97,17.34,6.67Z" fill="#764f4f"/><path d="m67.41,67.9c-6.27,6.16-14.59,10.26-23.83,11.16-.48.05-.97.1-1.45.12-.5.04-.98.06-1.46.07-.35.01-.67.01-1,.01h-.05c-.33,0-.66,0-.99-.01-.49-.01-.98-.04-1.45-.07-.51-.02-.99-.07-1.47-.12-9.01-.98-17.25-5.33-23.19-12.24-5.59-6.47-8.67-14.76-8.67-23.35,0-1.32.06-2.55.2-3.77.66-6.34,2.97-12.29,6.67-17.34-2.78,5.28-4.27,11.21-4.27,17.28,0,8.89,3.19,17.46,8.97,24.17,6.17,7.19,14.76,11.68,24.17,12.67,1.25.14,2.52.2,3.9.2,8.79,0,17.28-3.12,23.93-8.77Z" fill="#533b43"/><path d="m79.27,39.64c0,.33,0,.68-.01,1.01-.01.49-.04.98-.07,1.45-.02.51-.06.99-.12,1.46-.98,9.02-5.33,17.26-12.24,23.2-6.47,5.59-14.76,8.67-23.35,8.67-1.32,0-2.56-.06-3.77-.2-6.34-.66-12.29-2.97-17.34-6.67,5.28,2.78,11.21,4.27,17.28,4.27,8.89,0,17.47-3.19,24.17-8.97,7.19-6.17,11.68-14.76,12.67-24.17.14-1.25.2-2.52.2-3.9,0-8.79-3.12-17.28-8.79-23.93,6.17,6.27,10.27,14.59,11.17,23.83.06.48.1.97.12,1.45.04.5.06.98.07,1.46.01.35.01.69.01,1.03Z" fill="#764f4f"/></svg>