<?xml version="1.0" encoding="UTF-8"?><svg id="Capa_1" xmlns="http://www.w3.org/2000/svg" viewBox="0 0 56.6 60.75"><g><path d="m53.86,25.56c0,.95-.04,1.83-.14,2.7-.47,4.52-2.12,8.77-4.76,12.38,1.99-3.77,3.05-8.01,3.05-12.34,0-6.34-2.28-12.48-6.41-17.26-4.41-5.13-10.54-8.34-17.26-9.05-.89-.1-1.81-.14-2.78-.14-6.27,0-12.34,2.23-17.1,6.27C12.95,3.72,18.89.8,25.49.15c.34-.04.69-.07,1.03-.09.35-.03.7-.04,1.04-.05.25,0,.48,0,.72,0h.04c.24,0,.47,0,.71,0,.35,0,.7.03,1.03.05.36.02.71.05,1.05.09,6.43.7,12.32,3.8,16.56,8.74,3.99,4.62,6.19,10.54,6.19,16.67Z" fill="#533b43"/><path d="m40.64,7.64c-3.77-1.99-8.01-3.05-12.34-3.05-6.34,0-12.47,2.28-17.26,6.41C5.91,15.41,2.7,21.54,2,28.26c-.1.89-.14,1.81-.14,2.78,0,6.27,2.23,12.34,6.27,17.09C3.72,43.65.8,37.71.15,31.11c-.04-.34-.07-.69-.09-1.04-.03-.34-.04-.69-.05-1.03,0-.25,0-.49,0-.73s0-.49,0-.72c0-.35.03-.7.05-1.03.02-.36.05-.71.09-1.05.7-6.43,3.8-12.32,8.74-16.56,4.62-3.99,10.54-6.19,16.67-6.19.95,0,1.82.04,2.69.14,4.52.47,8.77,2.12,12.38,4.76Z" fill="#764f4f"/><path d="m48.13,48.48c-4.48,4.4-10.42,7.33-17.02,7.97-.34.04-.69.07-1.03.09-.35.03-.7.04-1.04.05-.25,0-.48,0-.72,0h-.04c-.24,0-.47,0-.71,0-.35,0-.7-.03-1.03-.05-.36-.02-.71-.05-1.05-.09-6.43-.7-12.32-3.81-16.56-8.74-3.99-4.62-6.19-10.54-6.19-16.67,0-.95.04-1.82.14-2.69.47-4.52,2.12-8.77,4.76-12.38-1.99,3.77-3.05,8.01-3.05,12.34,0,6.34,2.28,12.47,6.41,17.26,4.41,5.13,10.54,8.34,17.26,9.05.89.1,1.8.14,2.78.14,6.27,0,12.34-2.23,17.09-6.26Z" fill="#533b43"/><path d="m56.6,28.3c0,.24,0,.49,0,.72,0,.35-.03.7-.05,1.03-.02.36-.04.71-.09,1.04-.7,6.44-3.81,12.33-8.74,16.57-4.62,3.99-10.54,6.19-16.67,6.19-.95,0-1.83-.04-2.69-.14-4.52-.47-8.77-2.12-12.38-4.76,3.77,1.99,8.01,3.05,12.34,3.05,6.34,0,12.48-2.28,17.26-6.41,5.13-4.41,8.34-10.54,9.05-17.26.1-.89.14-1.8.14-2.78,0-6.27-2.23-12.34-6.27-17.09,4.41,4.48,7.33,10.42,7.98,17.02.04.34.07.69.09,1.03.03.35.04.7.05,1.04,0,.25,0,.49,0,.73Z" fill="#764f4f"/></g><path d="m22.29,46.99h12.01c2.54-.01,4.45,1.1,3.98,2.3l-3.8,9.85c-.36.93-2.03,1.6-3.98,1.6h-4.39c-1.95,0-3.62-.66-3.98-1.59l-3.82-9.85c-.47-1.2,1.44-2.32,3.98-2.32Z" fill="#764f4f"/><path d="m25.3,50.43h6.01c1.27,0,2.22.55,1.99,1.15l-1.9,4.93c-.18.46-1.01.8-1.99.8h-2.19c-.97,0-1.81-.33-1.99-.79l-1.91-4.92c-.23-.6.72-1.16,1.99-1.16Z" fill="#533b43"/></svg>