<?xml version="1.0" encoding="UTF-8"?><svg id="Capa_1" xmlns="http://www.w3.org/2000/svg" viewBox="0 0 54.28 78.67"><path d="m33.37,11.55h0s.03.01.03.01l8.07-8.07C37.67,1.28,33.25,0,28.53,0h-1.39v11.57h6.24,0Z" fill="#fdc308"/><path d="m52.71,16.91c-2.08-5.67-6.08-10.41-11.23-13.42l-8.01,8.01,8.25,16.4,10.99-10.99Z" fill="#f7a817"/><polygon points="33.2 66.97 33.2 66.96 33.2 66.97 33.2 66.97" fill="#5390cc"/><path d="m33.2,66.97l-.13.24.13-.24h-6.06v11.7h1.39c4.7,0,9.1-1.27,12.9-3.47l-8.23-8.23h0Z" fill="#fdc308"/><polygon points="33.2 66.96 33.18 66.95 33.2 66.96 41.78 50.83 41.77 50.82 41.77 50.83 41.77 50.82 41.74 50.79 41.77 50.82 41.77 27.85 41.72 27.9 41.74 27.94 41.72 27.9 41.71 27.92 41.72 27.9 33.47 11.51 33.41 11.57 33.45 11.57 33.41 11.57 33.18 11.79 33.41 11.57 27.14 11.57 27.14 66.97 33.2 66.97 33.2 66.96" fill="#ffe109"/><path d="m41.78,50.83l-8.58,16.14,8.23,8.23c5.17-3,9.21-7.74,11.29-13.42l-10.94-10.94Z" fill="#f8a815"/><path d="m52.71,16.91l-10.94,10.94v22.97l10.95,10.95c1.01-2.76,1.56-5.74,1.56-8.85v-27.16c0-3.11-.56-6.08-1.57-8.84Z" fill="#fdc308"/><path d="m20.91,11.55h0s-.03.01-.03.01L12.8,3.5C16.61,1.28,21.03,0,25.75,0h1.39v11.57h-6.24,0Z" fill="#f8a815"/><path d="m1.57,16.91C3.65,11.24,7.65,6.5,12.8,3.5l8.01,8.01-8.25,16.4L1.57,16.91Z" fill="#fdc307"/><polygon points="21.08 66.97 21.08 66.96 21.08 66.97 21.08 66.97" fill="#ccd1d6"/><path d="m21.08,66.97l.13.24-.13-.24h6.06v11.7h-1.39c-4.7,0-9.1-1.27-12.9-3.47l8.23-8.23h0Z" fill="#ffe109"/><polygon points="21.08 66.96 21.1 66.95 21.08 66.96 12.5 50.83 12.51 50.82 12.51 50.83 12.51 50.82 12.55 50.79 12.51 50.82 12.51 27.85 12.56 27.9 12.54 27.94 12.56 27.9 12.57 27.92 12.56 27.9 20.81 11.51 20.87 11.57 20.83 11.57 20.87 11.57 21.1 11.79 20.87 11.57 27.14 11.57 27.14 66.97 21.08 66.97 21.08 66.96" fill="#f9ed6f"/><path d="m12.5,50.83l8.58,16.14-8.23,8.23c-5.17-3-9.21-7.74-11.29-13.42l10.94-10.94Z" fill="#fdc308"/><path d="m1.57,16.91l10.94,10.94v22.97S1.56,61.77,1.56,61.77C.55,59.01,0,56.03,0,52.92v-27.16c0-3.11.56-6.08,1.57-8.84Z" fill="#ffe109"/></svg>