<?xml version="1.0" encoding="UTF-8"?><svg id="Capa_1" xmlns="http://www.w3.org/2000/svg" viewBox="0 0 56.36 74.49"><path d="m8,0C3.58,0,0,3.58,0,8v58.49c0,4.42,3.58,8,8,8h20.21V0H8Z" fill="#cbe8f8"/><path d="m48.36,0h-20.15v74.49h20.15c4.42,0,8-3.58,8-8V8c0-4.42-3.58-8-8-8Z" fill="#b7e0f6"/><rect x="32.79" y="14.36" width="17.89" height="3.89" rx="1.61" ry="1.61" fill="#5479a8"/><g><rect x="6.12" y="36.04" width="15.97" height="2.64" rx="1.32" ry="1.32" transform="translate(-22.28 20.91) rotate(-45)" fill="#bd516d"/><rect x="6.12" y="36.04" width="15.97" height="2.64" rx="1.32" ry="1.32" transform="translate(30.55 .97) rotate(45)" fill="#bd516d"/></g><g><rect x="10.15" y="55.23" width="15.32" height="3.1" rx="1.55" ry="1.55" transform="translate(-34.93 29.23) rotate(-45)" fill="#6e9d80"/><rect x="6.65" y="57.18" width="8.84" height="3.1" rx="1.55" ry="1.55" transform="translate(44.77 9.37) rotate(45)" fill="#6e9d80"/></g><g><path d="m18.2,0v1.69c0,2.76,2.24,5,5,5h4.98V0h-9.98Z" fill="#e3c88f"/><path d="m28.18,0v6.69h4.98c2.76,0,5-2.24,5-5V0h-9.98Z" fill="#deb271"/></g><rect x="32.78" y="35.36" width="17.89" height="3.89" rx="1.61" ry="1.61" fill="#5479a8"/><rect x="33.34" y="56.36" width="17.89" height="3.89" rx="1.61" ry="1.61" fill="#5479a8"/><g><rect x="9.65" y="15.75" width="15.32" height="3.1" rx="1.55" ry="1.55" transform="translate(-7.16 17.31) rotate(-45)" fill="#6e9d80"/><rect x="6.15" y="17.7" width="8.84" height="3.1" rx="1.55" ry="1.55" transform="translate(16.7 -1.84) rotate(45)" fill="#6e9d80"/></g></svg>