<?xml version="1.0" encoding="UTF-8"?><svg id="Capa_1" xmlns="http://www.w3.org/2000/svg" viewBox="0 0 71.39 76.23"><g><rect x="29.31" width="42.09" height="56.4" rx="5.88" ry="5.88" fill="#f0dbb8"/><rect x="33.52" y="5.64" width="33.67" height="45.12" rx="5.88" ry="5.88" fill="#e5858c"/><rect x="33.52" y="39" width="33.67" height="11.76" rx="5.88" ry="5.88" fill="#bd516d"/></g><g><rect x="15.59" y="6.51" width="42.09" height="56.4" rx="5.88" ry="5.88" transform="translate(-9.68 14.67) rotate(-20.05)" fill="#f0dbb8"/><rect x="19.8" y="12.15" width="33.67" height="45.12" rx="5.88" ry="5.88" transform="translate(-9.68 14.67) rotate(-20.05)" fill="#7ba0c9"/><rect x="25.52" y="44.5" width="33.67" height="11.76" rx="5.88" ry="5.88" transform="translate(-14.71 17.58) rotate(-20.05)" fill="#5479a8"/></g><g><rect x="8.26" y="15.43" width="42.09" height="56.4" rx="5.88" ry="5.88" transform="translate(-16.19 17.3) rotate(-26.05)" fill="#f0dbb8"/><rect x="12.47" y="21.08" width="33.67" height="45.12" rx="5.88" ry="5.88" transform="translate(-16.19 17.3) rotate(-26.05)" fill="#9fd0af"/><rect x="19.8" y="52.74" width="33.67" height="11.76" rx="5.88" ry="5.88" transform="translate(-22.02 22.04) rotate(-26.05)" fill="#6e9d80"/></g></svg>