<?xml version="1.0" encoding="UTF-8"?><svg id="Capa_1" xmlns="http://www.w3.org/2000/svg" viewBox="0 0 78.78 79.22"><polygon points="20.16 0 .21 25.25 26.43 25.25 20.28 0 20.16 0" fill="#668fbc"/><path d="m39.39,0h-.03l.03.06v-.06Z" fill="#5378a7"/><polygon points="39.51 .03 20.24 .03 26.38 25.28 26.43 25.28 39.54 .09 39.51 .03" fill="#496890"/><polygon points="26.43 25.22 39.54 25.22 39.54 .04 39.54 .02 26.43 25.22" fill="#668fbc"/><path d="m39.39,0v.06l13.21,25.12L58.8,0h-19.41Z" fill="#425e82"/><path d="m39.39,25.25h13.2l.02-.07L39.39.06v25.19Z" fill="#4e709b"/><polygon points="58.81 0 58.8 0 52.58 25.25 78.76 25.25 58.81 0" fill="#5175a3"/><polygon points="0 25.25 39.34 79.16 26.23 25.25 0 25.25" fill="#466389"/><path d="m39.34,79.16l.04.06V25.18h-13.16l13.12,53.98Z" fill="#5c81aa"/><path d="m39.39,78.87l13.2-53.62h-13.2v53.62Z" fill="#5176a3"/><path d="m39.39,78.87v.35l39.39-53.97h-26.14l.04.08-.04-.08h-.05s-13.2,53.62-13.2,53.62Z" fill="#47668c"/></svg>