<?xml version="1.0" encoding="UTF-8"?><svg id="Capa_1" xmlns="http://www.w3.org/2000/svg" viewBox="0 0 79.46 70.33"><path d="m44.5,4.69l24.08,19.82c2.18,1.8,3.09,4.72,2.31,7.44l-9.54,33.24c-.87,3.04-3.66,5.14-6.82,5.14h-29.09c-3.17,0-5.95-2.1-6.82-5.14L9.09,31.95c-.78-2.72.13-5.64,2.31-7.44L35.48,4.69c2.62-2.16,6.4-2.16,9.02,0Z" fill="#ede294"/><path d="m35.64,10.19l36.67,29.81c1.58,1.29,4.21.38,5.86-2.03h0c1.65-2.41,1.71-5.41.12-6.7L41.63,1.47c-1.58-1.29-4.21-.38-5.86,2.03h0c-1.65,2.41-1.71,5.41-.12,6.7Z" fill="#bd516d"/><path d="m43.68,10.29L7.13,40.01c-1.58,1.28-4.2.37-5.85-2.04h0c-1.65-2.41-1.71-5.4-.13-6.69L37.69,1.56c1.58-1.28,4.2-.37,5.85,2.04h0c1.65,2.41,1.71,5.4.13,6.69Z" fill="#bd516d"/><path d="m38.32,33.57h3.56c4.29,0,7.78,3.49,7.78,7.78v28.97h-19.33v-28.75c0-4.42,3.58-8,8-8Z" fill="#764f4f"/><rect x="56.32" y="3.37" width="8.44" height="17.33" rx="1.24" ry="1.24" fill="#bd516d"/><rect x="53.66" width="13.78" height="4.78" rx="1.69" ry="1.69" fill="#bd516d"/></svg>