<?xml version="1.0" encoding="UTF-8"?><svg id="Capa_1" xmlns="http://www.w3.org/2000/svg" viewBox="0 0 75.37 74.94"><rect x="6.63" y=".31" width="49.96" height="74.63" rx="7.28" ry="7.28" fill="#f0dbb8"/><rect x="6.63" y=".31" width="49.96" height="67.95" rx="7.28" ry="7.28" fill="#cb9367"/><rect y="48.97" width="13.26" height="4.78" rx="2.39" ry="2.39" fill="#8d7b80"/><rect x="0" y="31.58" width="13.26" height="4.78" rx="2.39" ry="2.39" fill="#8d7b80"/><rect y="14.19" width="13.26" height="4.78" rx="2.39" ry="2.39" fill="#8d7b80"/><rect x="22.78" y="52.84" width="17.22" height="1.48" rx=".74" ry=".74" fill="#8d7b80"/><rect x="17.3" y="57.18" width="28.63" height="1.48" rx=".74" ry=".74" fill="#8d7b80"/><rect x="68.37" y="8.05" width="7" height="55.18" fill="#5479a8"/><rect x="61.36" y="8.05" width="7" height="55.18" fill="#bd516d"/><path d="m65.47,0h5.79C73.53,0,75.37,1.84,75.37,4.11v3.94h-14.01v-3.94C61.36,1.84,63.2,0,65.47,0Z" fill="#e5858c"/><polygon points="68.37 74.94 72.36 68.26 64.37 68.26 68.37 74.94" fill="#8d7b80"/><polygon points="61.36 63.23 64.37 68.26 72.36 68.26 75.37 63.23 61.36 63.23" fill="#fffbe0"/><rect x="17.3" y="8.05" width="30.52" height="11.76" rx="5.88" ry="5.88" fill="#ede294"/></svg>