<?xml version="1.0" encoding="UTF-8"?><svg id="Capa_1" xmlns="http://www.w3.org/2000/svg" viewBox="0 0 80 80"><rect x="0" y="70.84" width="80" height="9.16" rx="2.93" ry="2.93" fill="#e3c88f"/><path d="m10.99,49.37h10c1.66,0,3,1.34,3,3v18.47H7.99v-18.47c0-1.66,1.34-3,3-3Z" fill="#bd516d"/><path d="m36.99,37.04h10c1.66,0,3,1.34,3,3v30.8h-16v-30.8c0-1.66,1.34-3,3-3Z" fill="#6e9d80"/><path d="m62.78,25.48h10c1.66,0,3,1.34,3,3v42.36h-16V28.48c0-1.66,1.34-3,3-3Z" fill="#82c0c6"/><path d="m72.41,7.09l6.43.73c1.07.12,1.54,1.42.79,2.2l-4.5,4.66c-.3.31-.42.74-.34,1.16l1.29,6.35c.22,1.06-.88,1.9-1.85,1.43l-5.82-2.83c-.39-.19-.84-.17-1.21.04l-5.64,3.19c-.94.53-2.08-.24-1.93-1.31l.9-6.41c.06-.42-.09-.85-.41-1.14l-4.78-4.37c-.8-.73-.41-2.05.65-2.24l6.38-1.13c.42-.07.78-.35.96-.74l2.68-5.89c.45-.98,1.83-1.03,2.33-.07l3.04,5.72c.2.38.58.63,1,.68Z" fill="#e3c88f"/><path d="m46.93,17.76l6.43.73c1.07.12,1.54,1.42.79,2.2l-4.5,4.66c-.3.31-.42.74-.34,1.16l1.29,6.35c.22,1.06-.88,1.9-1.85,1.43l-5.82-2.83c-.39-.19-.84-.17-1.21.04l-5.64,3.19c-.94.53-2.08-.24-1.93-1.31l.9-6.41c.06-.42-.09-.85-.41-1.14l-4.78-4.37c-.8-.73-.41-2.05.65-2.24l6.38-1.13c.42-.07.78-.35.96-.74l2.68-5.89c.45-.98,1.83-1.03,2.33-.07l3.04,5.72c.2.38.58.63,1,.68Z" fill="#e3c88f"/><path d="m20.93,31.06l6.43.73c1.07.12,1.54,1.42.79,2.2l-4.5,4.66c-.3.31-.42.74-.34,1.16l1.29,6.35c.22,1.06-.88,1.9-1.85,1.43l-5.82-2.83c-.39-.19-.84-.17-1.21.04l-5.64,3.19c-.94.53-2.08-.24-1.93-1.31l.9-6.41c.06-.42-.09-.85-.41-1.14l-4.78-4.37c-.8-.73-.41-2.05.65-2.24l6.38-1.13c.42-.07.78-.35.96-.74l2.68-5.89c.45-.98,1.83-1.03,2.33-.07l3.04,5.72c.2.38.58.63,1,.68Z" fill="#e3c88f"/></svg>