<?xml version="1.0" encoding="UTF-8"?><svg id="Capa_1" xmlns="http://www.w3.org/2000/svg" viewBox="0 0 80.05 88.24"><path d="m72.48,46.45l-22.72,2.67.78-6.84c9.44,7.56,16.33-12.39,13.28-24.33-3.06-11.95-9.34-.28-9.34-.28l.23-2.44c-1.95-2.95-3.95-.17-3.95-.17l-3.17,21.22c-3.05,5.17-2.88-.72-2.88-.72l2.56-17.18c.07-.88.25-1.68-.05-2.26-.53-1.01-1.85-1.48-3.26-.56-.57.37-.77,2.04-.76,2.27-7.35-6.38-13.11,9.94-13.44,20.51-.21,6.76,3.66,8.64,4.72,8.94,2.73.78,5.45-4.89,5.45-4.89,2.05,6.39,6.11,1.73,6.11,1.73l-.89,6.22-21.33,4s6.77-29.95,7.44-33.56c.7-3.77-.67-3.37-2.11-3.33-1.68.05-3.78,3.44-3.78,3.44l-1.55,6.56s-4.56,18.22-7.07,14.11c-2.51-4.11,1.18-8.67,1.96-15.22.77-6.56-4-4.34-4-4.34,0,0,.66,3.89-.34,4.78s-3.78,16-3.78,16c.78,13.45,9.34,2.78,9.34,2.78l-2.34,10.72c-7.61,1.39-28.12,27.76-10.88,31.84,9.12,2.15,14.39-24.19,14.88-26.42l22.39-4.92.06,3.5c2.11,3.61,4.03-.8,4.03-.8l.58-3.53,24.17-3.95c3.13-3.01-.48-5.79-.34-5.55Zm-20.67-11.52l.76-4.27c.39-2.2.98-4.38,1.85-6.44.4-.94.85-1.86,1.38-2.74,1.67-2.78,4.57-4.37,3.64,5.26-.62,6.42-1.73,9.95-3.42,11.12-2.28,1.57-4.57-.21-4.21-2.93Zm-9.46-10.51l-2.23,9.23c-.31,1.27-.74,2.5-1.29,3.67l-.59,1.26c-.54,1.16-2.14,1.23-2.65.06,0,0,0-.02-.01-.03-3.44-8.32,3.18-15.27,4.94-16.91.32-.3.79-.37,1.15-.12,1.05.73.68,2.84.68,2.84ZM6.04,81.89c-3.83-1.94,5.05-16.77,9.67-17.22,0,0-5.84,19.17-9.67,17.22Z" fill="#56636a"/><path d="m71.65,28.9s6.11-.79,8.06-10.07-5.06-8.61-5.06-8.61c0,0-9.5,1.83-10.61,21.94-.76,13.83,5.4,11.74,9.33,9.09,1.61-1.09,3.03-2.44,4.27-3.93l1.17-1.41c.28-.33.45-.74.48-1.18.06-.86.01-2.33-.87-3.51-1.09-1.45-3.94,2.37-4.96,3.84-.4.58-.92,1.08-1.56,1.39-1.02.51-2.43.65-3.09-1.85-1.11-4.17,2.83-5.71,2.83-5.71Zm3.43-13.34c2.07,1.19-.81,8.81-4.67,8.07,0,0,2.59-9.26,4.67-8.07Z" fill="#56636a"/></svg>